<?xml version="1.0" encoding="UTF-8"?>
<svg version="1.1" xmlns="http://www.w3.org/2000/svg" width="480" height="430">
<path d="M0 0 C1.69962891 0.40025391 1.69962891 0.40025391 3.43359375 0.80859375 C20.86715404 5.26097861 37.10420723 13.68061639 51.28515625 24.68359375 C54.35623861 27.04112166 57.53259976 29.26629988 61 31 C59.54895415 33.9020917 57.12139188 35.38858258 54.59375 37.3671875 C52.75780115 39.2481351 52.57398592 40.49204352 52 43 C51.195625 43.474375 50.39125 43.94875 49.5625 44.4375 C46.80794228 45.75972539 46.80794228 45.75972539 46.0625 48.4375 C44.57542072 52.02398533 42.24577978 52.91780165 39 55 C33.63313066 59.63921341 33.63313066 59.63921341 31 66 C30.360625 66.309375 29.72125 66.61875 29.0625 66.9375 C26.74467036 67.84648957 26.74467036 67.84648957 26 70.5 C24.75708079 73.60729803 23.91230787 73.58320158 21 75 C19.08084559 76.56864072 19.08084559 76.56864072 17.3125 78.375 C16.40951172 79.25285156 16.40951172 79.25285156 15.48828125 80.1484375 C13.88109806 82.14792525 13.54417563 83.53580849 13 86 C11.0625 87.625 11.0625 87.625 9 89 C6.93470336 90.81287474 6.93470336 90.81287474 6.1875 92.9375 C4.61248487 95.67305259 2.71029501 96.37382299 0 98 C-3.93275004 101.40893767 -6.76310172 103.89246315 -8 109 C-9.66666667 110 -11.33333333 111 -13 112 C-13.165 112.66 -13.33 113.32 -13.5 114 C-13.665 114.66 -13.83 115.32 -14 116 C-14.721875 116.42796875 -15.44375 116.8559375 -16.1875 117.296875 C-23.66507636 121.82496291 -30.42674787 129.58817759 -35 137 C-35 137.66 -35 138.32 -35 139 C-38.47684883 139.44160334 -39.69593039 139.2319175 -42.53515625 137.06640625 C-43.36917969 136.24011719 -44.20320313 135.41382813 -45.0625 134.5625 C-48.07854133 131.59293081 -49.87326009 129.86123268 -54 129 C-54.90785655 127.62140302 -55.80916184 126.23780008 -56.66796875 124.828125 C-60.25305578 119.9078296 -64.99773609 115.32364335 -71 114 C-72.125 112 -72.125 112 -73 110 C-73.66 109.67 -74.32 109.34 -75 109 C-78.23878292 111.15918862 -78.78984429 112.14069416 -80.3828125 115.55859375 C-80.82351074 116.49300293 -81.26420898 117.42741211 -81.71826172 118.39013672 C-82.18248535 119.3957666 -82.64670898 120.40139648 -83.125 121.4375 C-83.60855957 122.46633301 -84.09211914 123.49516602 -84.59033203 124.55517578 C-86.06752582 127.70009081 -87.53428964 130.8497198 -89 134 C-90.24391254 136.65791298 -91.4907071 139.31440625 -92.74169922 141.96899414 C-93.47096611 143.51723309 -94.19683166 145.06708114 -94.91845703 146.61889648 C-97.38713924 151.87870346 -100.1244408 156.95186185 -103 162 C-103.66 162 -104.32 162 -105 162 C-105.103125 163.11375 -105.20625 164.2275 -105.3125 165.375 C-105.539375 166.57125 -105.76625 167.7675 -106 169 C-106.99 169.66 -107.98 170.32 -109 171 C-109 171.99 -109 172.98 -109 174 C-109.875 176.04296875 -109.875 176.04296875 -111 178.1875 C-111.37125 178.90292969 -111.7425 179.61835938 -112.125 180.35546875 C-112.41375 180.89816406 -112.7025 181.44085938 -113 182 C-113.66 182 -114.32 182 -115 182 C-115.103125 182.86625 -115.20625 183.7325 -115.3125 184.625 C-116.03534752 188.17352417 -117.3315739 190.80628355 -119 194 C-114.64606096 194.11673963 -110.29252789 194.18743418 -105.9375 194.25 C-104.09381836 194.30027344 -104.09381836 194.30027344 -102.21289062 194.3515625 C-92.85673054 194.49171415 -92.85673054 194.49171415 -85 190 C-84.20016593 187.6819316 -84.20016593 187.6819316 -84 185 C-82.82254896 182.434337 -81.61039404 179.93994023 -80.3125 177.4375 C-79.58718469 176.01435089 -78.86192482 174.59117353 -78.13671875 173.16796875 C-77.77626465 172.46591309 -77.41581055 171.76385742 -77.04443359 171.04052734 C-75.55004535 168.12091609 -74.08744166 165.18571623 -72.625 162.25 C-71.75 160.5 -70.875 158.75 -70 157 C-69.48566406 155.94039063 -69.48566406 155.94039063 -68.9609375 154.859375 C-68 153 -68 153 -66 150 C-61.24220981 150.46292013 -59.08793778 152.36727234 -55.6875 155.625 C-54.73101562 156.52605469 -53.77453125 157.42710937 -52.7890625 158.35546875 C-51.86867188 159.22816406 -50.94828125 160.10085937 -50 161 C-48.52914852 162.32181171 -47.05108172 163.6356879 -45.5625 164.9375 C-44.96566406 165.46214844 -44.36882812 165.98679688 -43.75390625 166.52734375 C-43.17511719 167.01332031 -42.59632813 167.49929687 -42 168 C-41.32839844 168.57878906 -40.65679687 169.15757812 -39.96484375 169.75390625 C-39.31644531 170.16511719 -38.66804687 170.57632813 -38 171 C-34.60544716 169.86848239 -33.42002522 168.5712768 -31 166 C-30.46375 165.505 -29.9275 165.01 -29.375 164.5 C-27.89984126 163.02861678 -27.89984126 163.02861678 -27 161 C-25.63311096 158.26622192 -23.66298667 156.60994773 -21.4375 154.5625 C-19.89015675 153.02509527 -19.89015675 153.02509527 -18.9375 150.875 C-18 149 -18 149 -16 148 C-15.67 147.01 -15.34 146.02 -15 145 C-14.4225 144.731875 -13.845 144.46375 -13.25 144.1875 C-9.95535686 142.44866056 -8.28799302 139.92354664 -6 137 C-4.35 137.33 -2.7 137.66 -1 138 C-0.67 138.99 -0.34 139.98 0 141 C0.58434316 142.20383608 1.19057091 143.3971758 1.8125 144.58203125 C2.34230469 145.60973633 2.34230469 145.60973633 2.8828125 146.65820312 C3.62281913 148.08517394 4.36755712 149.50970187 5.1171875 150.93164062 C7.1868772 154.96904626 8.53939273 158.41551826 9 163 C9.66 163 10.32 163 11 163 C11.44730469 163.89460937 11.89460937 164.78921875 12.35546875 165.7109375 C12.64599121 166.29182129 12.93651367 166.87270508 13.23583984 167.47119141 C13.87340439 168.74664762 14.51044369 170.02236651 15.14697266 171.29833984 C16.60046166 174.21045905 18.06044078 177.11812729 19.54296875 180.015625 C19.98253906 180.87671875 20.42210937 181.7378125 20.875 182.625 C21.26429688 183.38039062 21.65359375 184.13578125 22.0546875 184.9140625 C23 187 23 187 23.3203125 189.0859375 C24.37738783 192.06275884 26.21431412 192.64281024 29 194 C32.18782347 194.41028666 32.18782347 194.41028666 35.61328125 194.29296875 C37.4840332 194.2784668 37.4840332 194.2784668 39.39257812 194.26367188 C41.33293945 194.2259668 41.33293945 194.2259668 43.3125 194.1875 C45.28186523 194.16719727 45.28186523 194.16719727 47.29101562 194.14648438 C50.52776077 194.11117443 53.76367105 194.0618528 57 194 C56.30608154 192.62001831 56.30608154 192.62001831 55.59814453 191.2121582 C40.11187904 160.39917778 40.11187904 160.39917778 34 147.625 C33.59797363 146.79009033 33.19594727 145.95518066 32.78173828 145.0949707 C32.42063965 144.334021 32.05954102 143.57307129 31.6875 142.7890625 C31.38199219 142.14662598 31.07648438 141.50418945 30.76171875 140.84228516 C30 139 30 139 29.58203125 137.01318359 C28.86183863 134.52211465 27.58588939 133.04135916 26 131 C24.11314506 127.56751446 22.44564788 124.03020478 20.75 120.5 C20.04230469 119.07494141 20.04230469 119.07494141 19.3203125 117.62109375 C18.65902344 116.24630859 18.65902344 116.24630859 17.984375 114.84375 C17.57928711 114.01037109 17.17419922 113.17699219 16.75683594 112.31835938 C15.90093091 109.69652899 15.99362578 108.53589784 17 106 C18.4375 104.375 18.4375 104.375 20 103 C22.2236068 101.0745356 22.2236068 101.0745356 23 98 C23.66 97.690625 24.32 97.38125 25 97.0625 C25.66 96.711875 26.32 96.36125 27 96 C27.65213292 93.97536745 27.65213292 93.97536745 28 92 C28.66 91.67 29.32 91.34 30 91 C30.33 90.01 30.66 89.02 31 88 C31.66 87.67 32.32 87.34 33 87 C33.7425 85.7625 33.7425 85.7625 34.5 84.5 C36 82 36 82 38 81 C38.33 80.01 38.66 79.02 39 78 C39.639375 77.71125 40.27875 77.4225 40.9375 77.125 C43.72563592 75.60419859 43.91067817 73.90485822 45 71 C45.99 70.34 46.98 69.68 48 69 C48.33 68.01 48.66 67.02 49 66 C49.66 65.67 50.32 65.34 51 65 C51.33 64.01 51.66 63.02 52 62 C52.66 62 53.32 62 54 62 C54.33 61.01 54.66 60.02 55 59 C55.66 58.67 56.32 58.34 57 58 C57.33 57.01 57.66 56.02 58 55 C58.66 54.67 59.32 54.34 60 54 C60.309375 53.34 60.61875 52.68 60.9375 52 C62 50 62 50 65 49 C65.185625 48.0409375 65.185625 48.0409375 65.375 47.0625 C66 45 66 45 68.3125 43.5625 C71 43 71 43 73.125 44.1875 C74.053125 45.0846875 74.053125 45.0846875 75 46 C75.556875 46.515625 76.11375 47.03125 76.6875 47.5625 C78 49 78 49 79 51 C79.66 51.33 80.32 51.66 81 52 C81.33 52.99 81.66 53.98 82 55 C82.44472656 55.44085938 82.88945312 55.88171875 83.34765625 56.3359375 C89.00865576 62.03708594 96 73.72818642 96 82 C97.11940003 84.55862864 98.44120681 86.66181022 100 89 C99.625 91.6875 99.625 91.6875 99 94 C99.66 94 100.32 94 101 94 C101.12375 95.093125 101.2475 96.18625 101.375 97.3125 C101.75464801 101.07381802 101.75464801 101.07381802 104 104 C104.125 106.6875 104.125 106.6875 104 109 C104.33 109 104.66 109 105 109 C106.06307945 114.97982191 106.35707262 120.92976549 106 127 C105.67 127.33 105.34 127.66 105 128 C105.144375 128.928125 105.28875 129.85625 105.4375 130.8125 C106.94815937 140.57215458 107.61858432 154.57212353 102 163 C102 163.66 102 164.32 102 165 C101.16666667 170.83333333 101.16666667 170.83333333 100 172 C99.855625 172.7425 99.71125 173.485 99.5625 174.25 C98.99473183 177.02575552 98.07281574 179.38501162 97 182 C96.77461548 182.95350342 96.77461548 182.95350342 96.54467773 183.92626953 C95.60690817 187.49660333 93.78063427 190.62443649 92.0625 193.875 C91.66861084 194.62152832 91.27472168 195.36805664 90.86889648 196.13720703 C86.85511893 203.5597413 82.05025307 210.25996471 77 217 C76.34 217.99 75.68 218.98 75 220 C74.34 220 73.68 220 73 220 C72.7525 220.61875 72.505 221.2375 72.25 221.875 C70.7484544 224.42762751 69.61237555 224.72203789 67 226 C64.62959487 227.86597392 62.4563949 229.9439309 60.25 232 C59.34701172 232.81984375 59.34701172 232.81984375 58.42578125 233.65625 C56.90846118 235.06002911 55.4490346 236.52583763 54 238 C54 238.66 54 239.32 54 240 C53.42507813 240.10957031 52.85015625 240.21914063 52.2578125 240.33203125 C49.71349186 241.08476279 48.04262232 242.16376549 45.875 243.6875 C35.98246389 250.46120699 25.90957709 256.29421088 14.5 260.0625 C13.7275293 260.31926514 12.95505859 260.57603027 12.15917969 260.84057617 C4.54283982 263.28690973 -3.10396145 264.75842833 -11 266 C-11.94560791 266.17200928 -12.89121582 266.34401855 -13.86547852 266.52124023 C-29.56758855 268.91954522 -46.55514274 267.43896011 -62 264 C-62.75716309 263.83371094 -63.51432617 263.66742188 -64.29443359 263.49609375 C-75.71350333 260.89043237 -85.82139774 256.76152361 -96 251 C-96.88776123 250.49847412 -96.88776123 250.49847412 -97.79345703 249.98681641 C-108.92347092 243.60585806 -118.35135703 235.76958438 -127.65234375 227.00390625 C-129.91283366 224.82050587 -129.91283366 224.82050587 -133 224 C-133.12375 223.38125 -133.2475 222.7625 -133.375 222.125 C-133.82054958 219.72376733 -133.82054958 219.72376733 -136.5 218.5 C-139 217 -139 217 -139.625 214.875 C-139.74875 214.25625 -139.8725 213.6375 -140 213 C-140.99 212.67 -141.98 212.34 -143 212 C-144.5703125 210.07421875 -144.5703125 210.07421875 -146.125 207.6875 C-146.90230469 206.51767578 -146.90230469 206.51767578 -147.6953125 205.32421875 C-149 203 -149 203 -149.4296875 201.01953125 C-149.90138088 198.81832423 -149.90138088 198.81832423 -151.8046875 196.859375 C-154.79475414 192.9648398 -156.35402067 188.80202291 -158.125 184.25 C-158.47175781 183.3940625 -158.81851563 182.538125 -159.17578125 181.65625 C-161.50646362 175.76257044 -164 169.42592586 -164 163 C-164.165 162.4225 -164.33 161.845 -164.5 161.25 C-165.11917069 158.46373189 -165.06466088 155.84507877 -165 153 C-165.66 153 -166.32 153 -167 153 C-168.32286246 148.03926578 -168.08893197 143.08888488 -168 138 C-167.67 138 -167.34 138 -167 138 C-167 129.09 -167 120.18 -167 111 C-166.01 110.505 -166.01 110.505 -165 110 C-163.11610447 103.21551347 -162.57690325 95.99874728 -162 89 C-161.34 89 -160.68 89 -160 89 C-160.06960937 88.17371094 -160.13921875 87.34742188 -160.2109375 86.49609375 C-159.94471218 82.0836555 -158.54482869 78.99430916 -156.625 75.0625 C-156.27356934 74.32902344 -155.92213867 73.59554687 -155.56005859 72.83984375 C-145.68624898 52.84312449 -145.68624898 52.84312449 -140 50 C-139.505 49.175 -139.01 48.35 -138.5 47.5 C-137 45 -137 45 -135 44 C-134.67 43.01 -134.34 42.02 -134 41 C-132.68334712 40.30096681 -131.34711397 39.63836211 -130 39 C-128.08183157 37.39551051 -128.08183157 37.39551051 -126.3125 35.5625 C-125.71050781 34.96566406 -125.10851562 34.36882812 -124.48828125 33.75390625 C-122.7802312 31.96183786 -122.7802312 31.96183786 -122 29 C-121.43410156 28.86464844 -120.86820313 28.72929688 -120.28515625 28.58984375 C-116.97136871 27.73449004 -115.05466449 25.74972612 -112.4375 23.5625 C-82.11030625 -0.67813027 -37.39716478 -9.91819181 0 0 Z M-45 45 C-47.04689933 47.82330943 -48.54259922 50.84897555 -50.03808594 53.99267578 C-51.62749376 57.30945526 -53.28855875 60.59032344 -54.93725586 63.87792969 C-55.89796887 65.7970718 -56.8544971 67.71831435 -57.80688477 69.64160156 C-59.96609738 73.99483488 -62.14588343 78.32407254 -64.48828125 82.58203125 C-64.86227051 83.26233398 -65.23625977 83.94263672 -65.62158203 84.64355469 C-66.61705913 86.43568707 -67.62637498 88.22011293 -68.63671875 90.00390625 C-70.01354607 93.0297703 -70.56415659 94.73473004 -70 98 C-67.42451309 100.01559845 -64.91728216 101.54135892 -62 103 C-61.0360718 104.10243988 -60.10202276 105.23124331 -59.1875 106.375 C-56.72547684 109.29940312 -54.52788748 111.37907873 -51 113 C-50.01 113 -49.02 113 -48 113 C-45.03 106.73 -42.06 100.46 -39 94 C-38.34 94 -37.68 94 -37 94 C-36.855625 93.4225 -36.71125 92.845 -36.5625 92.25 C-36.2840625 91.13625 -36.2840625 91.13625 -36 90 C-35.9175 89.29875 -35.835 88.5975 -35.75 87.875 C-35 86 -35 86 -32.4375 84.75 C-31.633125 84.5025 -30.82875 84.255 -30 84 C-26.70474877 86.95727675 -24.98883968 89.69270742 -23.25 93.75 C-22.82203125 94.73484375 -22.3940625 95.7196875 -21.953125 96.734375 C-21.63859375 97.48203125 -21.3240625 98.2296875 -21 99 C-16.94609157 96.03064369 -12.93410131 93.01741478 -9.0625 89.8125 C-8.49660156 89.34457031 -7.93070313 88.87664062 -7.34765625 88.39453125 C-5.7359563 86.92763748 -5.7359563 86.92763748 -5 84 C-3.37347684 82.29413425 -1.70993434 80.6222454 0 79 C-1.83817123 73.67897802 -4.00514364 68.99753463 -6.9140625 64.17578125 C-8.10388591 61.79185449 -8.51290625 59.6066098 -9 57 C-10.33289654 55.49985609 -10.33289654 55.49985609 -12 54 C-16 48.51428571 -16 48.51428571 -16 45 C-24.50068919 40.91966919 -36.9952074 39.16317207 -45 45 Z M-7 62 C-6 64 -6 64 -6 64 Z M-159 83 C-158 86 -158 86 -158 86 Z M-27 89 C-26 91 -26 91 -26 91 Z M-25 93 C-24 95 -24 95 -24 95 Z M-39 95 C-39.33 95.66 -39.66 96.32 -40 97 C-39.34 97 -38.68 97 -38 97 C-38.33 96.34 -38.66 95.68 -39 95 Z M-23 97 C-22 99 -22 99 -22 99 Z M100 97 C101 99 101 99 101 99 Z M-42 101 C-41 103 -41 103 -41 103 Z M-44 105 C-43 107 -43 107 -43 107 Z M102 105 C103 108 103 108 103 108 Z M20 115 C21 117 21 117 21 117 Z M104 135 C104 138.63 104 142.26 104 146 C104.33 146 104.66 146 105 146 C105 142.37 105 138.74 105 135 C104.67 135 104.34 135 104 135 Z M0 144 C1 146 1 146 1 146 Z M103 149 C103 151.31 103 153.62 103 156 C103.33 156 103.66 156 104 156 C104 153.69 104 151.38 104 149 C103.67 149 103.34 149 103 149 Z M102 156 C103 159 103 159 103 159 Z M-104 158 C-103 160 -103 160 -103 160 Z M-70 159 C-69 161 -69 161 -69 161 Z M42 160 C43 162 43 162 43 162 Z M-163 165 C-162 167 -162 167 -162 167 Z M-108 166 C-107 168 -107 168 -107 168 Z M-162 168 C-161 170 -161 170 -161 170 Z M12 169 C13 171 13 171 13 171 Z M-161 172 C-160 174 -160 174 -160 174 Z M-160 175 C-159 177 -159 177 -159 177 Z M-81 181 C-80 183 -80 183 -80 183 Z M-157 183 C-156 185 -156 185 -156 185 Z M94 183 C95 185 95 185 95 185 Z M-122 194 C-122 194.66 -122 195.32 -122 196 C-112.76 196 -103.52 196 -94 196 C-94 195.67 -94 195.34 -94 195 C-107.86 194.505 -107.86 194.505 -122 194 Z M59 194 C45.635 194.495 45.635 194.495 32 195 C32 195.33 32 195.66 32 196 C41.24 196 50.48 196 60 196 C59.67 195.34 59.34 194.68 59 194 Z " fill="#030304" transform="translate(275,66)"/>
<path d="M0 0 C1.32 0 2.64 0 4 0 C4.67408308 1.26691507 5.33900497 2.53870749 6 3.8125 C6.556875 4.87404297 6.556875 4.87404297 7.125 5.95703125 C8 8 8 8 8 11 C8.474375 11.474375 8.94875 11.94875 9.4375 12.4375 C11 14 11 14 12 18 C2.43 18 -7.14 18 -17 18 C-17 17.67 -17 17.34 -17 17 C-8.09 17 0.82 17 10 17 C8.92970871 15.70454552 8.92970871 15.70454552 6.40795898 15.88647461 C5.28204346 15.89171143 4.15612793 15.89694824 2.99609375 15.90234375 C1.17368164 15.90717773 1.17368164 15.90717773 -0.68554688 15.91210938 C-1.96494141 15.92048828 -3.24433594 15.92886719 -4.5625 15.9375 C-6.48739258 15.94426758 -6.48739258 15.94426758 -8.45117188 15.95117188 C-11.63416022 15.96300455 -14.81705762 15.97948932 -18 16 C-18 15.67 -18 15.34 -18 15 C-9.75 15 -1.5 15 7 15 C4.69 10.05 2.38 5.1 0 0 Z " fill="#2A2F37" transform="translate(325,245)"/>
<path d="M0 0 C0 3 0 3 -1.1484375 5.3671875 C-2.29183071 7.99642409 -2.29183071 7.99642409 -1.1015625 10.5703125 C-0.61429687 11.41335937 -0.12703125 12.25640625 0.375 13.125 C3 17.74331551 3 17.74331551 3 21 C3.66 21.33 4.32 21.66 5 22 C6.10546875 23.99609375 6.10546875 23.99609375 7.1875 26.4375 C7.55230469 27.24058594 7.91710937 28.04367188 8.29296875 28.87109375 C9 31 9 31 8 33 C7.34 33 6.68 33 6 33 C4.17421297 29.46503234 2.36679166 25.92098088 0.5625 22.375 C-0.2119043 20.87646484 -0.2119043 20.87646484 -1.00195312 19.34765625 C-1.49501953 18.37441406 -1.98808594 17.40117187 -2.49609375 16.3984375 C-2.95169678 15.50817871 -3.4072998 14.61791992 -3.87670898 13.70068359 C-5.10398266 10.74999866 -5.73881158 8.18467064 -6 5 C-4.15858081 2.65060311 -2.6600106 1.3300053 0 0 Z M-2 13 C-1 15 -1 15 -1 15 Z " fill="#313845" transform="translate(297,168)"/>
<path d="M0 0 C0.66 0.33 1.32 0.66 2 1 C1.35055015 5.90480034 -0.69016379 9.9685524 -2.8125 14.375 C-3.15603516 15.10460937 -3.49957031 15.83421875 -3.85351562 16.5859375 C-6.04194227 21.18450755 -8.42175213 25.6082879 -11 30 C-12.09057617 28.24584961 -12.09057617 28.24584961 -13 26 C-12.5402832 24.06469727 -12.5402832 24.06469727 -11.55078125 22.06640625 C-11.19693359 21.33486328 -10.84308594 20.60332031 -10.47851562 19.84960938 C-10.09373047 19.09486328 -9.70894531 18.34011719 -9.3125 17.5625 C-8.94705078 16.81162109 -8.58160156 16.06074219 -8.20507812 15.28710938 C-6.3004327 11.41308102 -4.27224011 7.67368162 -2 4 C-1.31903578 2.67391178 -0.64669414 1.34313399 0 0 Z M-2 6 C-1 8 -1 8 -1 8 Z " fill="#3B4E54" transform="translate(207,219)"/>
<path d="M0 0 C1.82421875 0.16796875 1.82421875 0.16796875 4 1 C5.51953125 3.36328125 5.51953125 3.36328125 6.8125 6.3125 C7.47185547 7.76076172 7.47185547 7.76076172 8.14453125 9.23828125 C9.02467991 12.07967441 9.05532187 13.27429137 8 16 C4.98291655 14.49145828 4.35542698 12.10730943 2.875 9.125 C2.33617187 8.05507812 1.79734375 6.98515625 1.2421875 5.8828125 C0 3 0 3 0 0 Z " fill="#3B444A" transform="translate(307,207)"/>
<path d="M0 0 C0.66 0.33 1.32 0.66 2 1 C1.690625 1.598125 1.38125 2.19625 1.0625 2.8125 C-0.10209704 5.08956772 -0.10209704 5.08956772 -1 8 C-1.66885455 9.40486317 -2.35757322 10.80038602 -3.0625 12.1875 C-3.42472656 12.90292969 -3.78695312 13.61835938 -4.16015625 14.35546875 C-4.43730469 14.89816406 -4.71445313 15.44085938 -5 16 C-5.66 15.67 -6.32 15.34 -7 15 C-6.42176904 10.93774452 -5.10882263 8.15237654 -2.9375 4.6875 C-2.38964844 3.80449219 -1.84179688 2.92148438 -1.27734375 2.01171875 C-0.64505859 1.01591797 -0.64505859 1.01591797 0 0 Z " fill="#454A51" transform="translate(126,128)"/>
<path d="M0 0 C0 3 0 3 -2 6 C-2.66 6 -3.32 6 -4 6 C-4.433125 7.1446875 -4.433125 7.1446875 -4.875 8.3125 C-6 11 -6 11 -8 14 C-8.99 13.67 -9.98 13.34 -11 13 C-9.75023244 9.34683329 -9.32901247 8.21934164 -6 6 C-5.505 5.154375 -5.01 4.30875 -4.5 3.4375 C-3 1 -3 1 0 0 Z " fill="#353A3F" transform="translate(141,110)"/>
<path d="M0 0 C0.66 0.33 1.32 0.66 2 1 C-0.63805222 6.07317734 -3.38116902 10.50339138 -8 14 C-10.875 14.875 -10.875 14.875 -13 15 C-12 12 -12 12 -10.16796875 11.02734375 C-9.09482422 10.51880859 -9.09482422 10.51880859 -8 10 C-6.08183157 8.39551051 -6.08183157 8.39551051 -4.3125 6.5625 C-3.40951172 5.66724609 -3.40951172 5.66724609 -2.48828125 4.75390625 C-0.7802312 2.96183786 -0.7802312 2.96183786 0 0 Z " fill="#485D6A" transform="translate(153,95)"/>
<path d="M0 0 C0.99 0 1.98 0 3 0 C3.70133599 1.57725347 4.385583 3.16211333 5.0625 4.75 C5.44535156 5.63171875 5.82820313 6.5134375 6.22265625 7.421875 C7.04600008 10.15256309 6.9773992 11.36901347 6 14 C3.2079853 12.60399265 2.99837067 10.99583616 1.875 8.125 C1.34519531 6.79855469 1.34519531 6.79855469 0.8046875 5.4453125 C0 3 0 3 0 0 Z M3 6 C4 8 4 8 4 8 Z " fill="#384447" transform="translate(115,243)"/>
<path d="M0 0 C0 0.99 0 1.98 0 3 C-0.99 3.33 -1.98 3.66 -3 4 C-3.33 4.99 -3.66 5.98 -4 7 C-4.66 7 -5.32 7 -6 7 C-6.12375 7.61875 -6.2475 8.2375 -6.375 8.875 C-7 11 -7 11 -9 13 C-9.99 13 -10.98 13 -12 13 C-11.67 12.01 -11.34 11.02 -11 10 C-10.34 10 -9.68 10 -9 10 C-8.9071875 9.13375 -8.9071875 9.13375 -8.8125 8.25 C-7.34060808 4.17399161 -3.48547115 2.32364743 0 0 Z " fill="#192128" transform="translate(265,156)"/>
<path d="M0 0 C16.335 0.495 16.335 0.495 33 1 C33 1.33 33 1.66 33 2 C28.62501407 2.02913072 24.25005326 2.04684286 19.875 2.0625 C18.6375 2.07087891 17.4 2.07925781 16.125 2.08789062 C14.92617187 2.09111328 13.72734375 2.09433594 12.4921875 2.09765625 C10.84259033 2.10551147 10.84259033 2.10551147 9.15966797 2.11352539 C6.02381895 2.0008558 3.07940617 1.58626376 0 1 C0 0.67 0 0.34 0 0 Z " fill="#253237" transform="translate(225,333)"/>
<path d="M0 0 C0.66 0 1.32 0 2 0 C2.12375 0.969375 2.2475 1.93875 2.375 2.9375 C2.684375 4.4534375 2.684375 4.4534375 3 6 C3.66 6.33 4.32 6.66 5 7 C5.625 10.0625 5.625 10.0625 6 13 C5.01 13.495 5.01 13.495 4 14 C3.13116294 12.42466914 2.28040932 10.83935491 1.4375 9.25 C0.96183594 8.36828125 0.48617188 7.4865625 -0.00390625 6.578125 C-1.07998186 3.79298812 -1.06528748 2.73019786 0 0 Z " fill="#49575E" transform="translate(318,226)"/>
<path d="M0 0 C0.99 0 1.98 0 3 0 C2.37240135 2.92879371 1.41377341 5.36095629 0 8 C-0.66 8 -1.32 8 -2 8 C-2.33 9.32 -2.66 10.64 -3 12 C-3.66 12 -4.32 12 -5 12 C-4.42365861 7.24518354 -2.44931479 4.02951788 0 0 Z M-1 4 C0 6 0 6 0 6 Z " fill="#25272B" transform="translate(172,220)"/>
<path d="M0 0 C0.66 0 1.32 0 2 0 C2.69699552 1.45381897 3.38233866 2.91322953 4.0625 4.375 C4.63677734 5.59316406 4.63677734 5.59316406 5.22265625 6.8359375 C5.47917969 7.55007812 5.73570312 8.26421875 6 9 C5.67 9.66 5.34 10.32 5 11 C4.34 11 3.68 11 3 11 C2.30034557 9.73581754 1.61565237 8.46334598 0.9375 7.1875 C0.55464844 6.47980469 0.17179687 5.77210938 -0.22265625 5.04296875 C-1 3 -1 3 0 0 Z " fill="#485356" transform="translate(300,190)"/>
<path d="M0 0 C0.99 0.33 1.98 0.66 3 1 C3 1.66 3 2.32 3 3 C2.34 3 1.68 3 1 3 C0.79375 3.7425 0.5875 4.485 0.375 5.25 C-1.39615589 8.79231177 -3.63427951 10.02446841 -7 12 C-7 11.01 -7 10.02 -7 9 C-6.01 8.34 -5.02 7.68 -4 7 C-3.67 6.01 -3.34 5.02 -3 4 C-2.34 3.67 -1.68 3.34 -1 3 C-0.67 2.01 -0.34 1.02 0 0 Z " fill="#435055" transform="translate(327,128)"/>
<path d="M0 0 C1.32 0 2.64 0 4 0 C7.125 6.625 7.125 6.625 6 10 C2.63408573 7.27521226 1.55773724 3.93143208 0 0 Z " fill="#4D6A65" transform="translate(325,245)"/>
<path d="M0 0 C0.99 0 1.98 0 3 0 C6.07692308 6.4 6.07692308 6.4 5.6875 9.4375 C5.460625 9.953125 5.23375 10.46875 5 11 C4.34 11 3.68 11 3 11 C0 4.5 0 4.5 0 0 Z " fill="#3B4C58" transform="translate(369,148)"/>
<path d="M0 0 C0 3 0 3 -2 6 C-2.66 6 -3.32 6 -4 6 C-4.33 6.99 -4.66 7.98 -5 9 C-7.0625 9.6875 -7.0625 9.6875 -9 10 C-8.67 9.01 -8.34 8.02 -8 7 C-7.34 6.67 -6.68 6.34 -6 6 C-5.525625 5.175 -5.05125 4.35 -4.5625 3.5 C-3 1 -3 1 0 0 Z " fill="#3A3B4B" transform="translate(314,147)"/>
<path d="M0 0 C0 3 0 3 -2 6 C-2.66 6 -3.32 6 -4 6 C-4.33 6.99 -4.66 7.98 -5 9 C-7.0625 9.6875 -7.0625 9.6875 -9 10 C-8.67 9.01 -8.34 8.02 -8 7 C-7.34 6.67 -6.68 6.34 -6 6 C-5.71125 5.360625 -5.4225 4.72125 -5.125 4.0625 C-3.77090236 1.57998766 -2.57821507 1.03128603 0 0 Z " fill="#343C42" transform="translate(341,114)"/>
<path d="M0 0 C0.66 0 1.32 0 2 0 C2 1.32 2 2.64 2 4 C4.41880929 6.26877535 4.41880929 6.26877535 7 8 C6.67 8.66 6.34 9.32 6 10 C2.19118361 8.55527654 0.70257114 6.67396929 -1 3 C-0.67 2.01 -0.34 1.02 0 0 Z " fill="#333847" transform="translate(127,266)"/>
<path d="M0 0 C0.99 0 1.98 0 3 0 C1.25 5.75 1.25 5.75 -1 8 C-1.66 8 -2.32 8 -3 8 C-2.37240135 5.07120629 -1.41377341 2.63904371 0 0 Z " fill="#445266" transform="translate(183,198)"/>
<path d="M0 0 C0.99 0 1.98 0 3 0 C2.37240135 2.92879371 1.41377341 5.36095629 0 8 C-0.66 7.67 -1.32 7.34 -2 7 C-1.125 2.25 -1.125 2.25 0 0 Z " fill="#2D3043" transform="translate(366,253)"/>
<path d="M0 0 C0.99 0.33 1.98 0.66 3 1 C2.34 2.65 1.68 4.3 1 6 C0.01 6 -0.98 6 -2 6 C-1.34 4.02 -0.68 2.04 0 0 Z " fill="#34384F" transform="translate(357,269)"/>
<path d="M0 0 C1.9375 0.8125 1.9375 0.8125 4 2 C4.33 2.99 4.66 3.98 5 5 C5.66 5 6.32 5 7 5 C6.67 5.99 6.34 6.98 6 8 C3.38472619 5.63379989 1.73559438 3.057952 0 0 Z " fill="#545A5F" transform="translate(216,187)"/>
<path d="M0 0 C5.61 0 11.22 0 17 0 C17 0.33 17 0.66 17 1 C11.39 1 5.78 1 0 1 C0 0.67 0 0.34 0 0 Z " fill="#587070" transform="translate(236,61)"/>
<path d="M0 0 C4.62 0 9.24 0 14 0 C14 0.33 14 0.66 14 1 C9.38 1 4.76 1 0 1 C0 0.67 0 0.34 0 0 Z " fill="#000000" transform="translate(237,109)"/>
<path d="M0 0 C0 0.99 0 1.98 0 3 C-2.5 5.1875 -2.5 5.1875 -5 7 C-3.70700306 4.11562221 -2.34058637 2.12780579 0 0 Z " fill="#001515" transform="translate(250,191)"/>
<path d="M0 0 C0.33 0 0.66 0 1 0 C1 3.96 1 7.92 1 12 C0.67 12 0.34 12 0 12 C0 8.04 0 4.08 0 0 Z " fill="#181F1F" transform="translate(107,183)"/>
<path d="M0 0 C2.31 0.33 4.62 0.66 7 1 C4 2 4 2 1.8125 1.0625 C1.214375 0.711875 0.61625 0.36125 0 0 Z " fill="#2B323C" transform="translate(271,64)"/>
<path d="M0 0 C1.98 0 3.96 0 6 0 C6 0.33 6 0.66 6 1 C4.02 1 2.04 1 0 1 C0 0.67 0 0.34 0 0 Z " fill="#193333" transform="translate(258,333)"/>
<path d="M0 0 C2.475 0.495 2.475 0.495 5 1 C3.68 1.33 2.36 1.66 1 2 C0.67 1.34 0.34 0.68 0 0 Z " fill="#0A2020" transform="translate(189,323)"/>
<path d="M0 0 C2.475 0.495 2.475 0.495 5 1 C4.01 1.33 3.02 1.66 2 2 C1.34 1.34 0.68 0.68 0 0 Z " fill="#161616" transform="translate(302,258)"/>
<path d="M0 0 C1.98 0 3.96 0 6 0 C6 0.33 6 0.66 6 1 C4.02 1 2.04 1 0 1 C0 0.67 0 0.34 0 0 Z " fill="#2A3540" transform="translate(259,62)"/>
<path d="M0 0 C0.99 0.33 1.98 0.66 3 1 C2.01 1.66 1.02 2.32 0 3 C0 2.01 0 1.02 0 0 Z " fill="#C8C9C8" transform="translate(0,0)"/>
<path d="M0 0 C1.65 0 3.3 0 5 0 C5 0.33 5 0.66 5 1 C3.35 1 1.7 1 0 1 C0 0.67 0 0.34 0 0 Z " fill="#111111" transform="translate(201,328)"/>
<path d="M0 0 C0.33 0 0.66 0 1 0 C1 1.65 1 3.3 1 5 C0.67 5 0.34 5 0 5 C0 3.35 0 1.7 0 0 Z " fill="#000000" transform="translate(381,195)"/>
<path d="M0 0 C1.65 0 3.3 0 5 0 C5 0.33 5 0.66 5 1 C3.35 1 1.7 1 0 1 C0 0.67 0 0.34 0 0 Z " fill="#1E2833" transform="translate(265,63)"/>
<path d="M0 0 C1.65 0 3.3 0 5 0 C5 0.33 5 0.66 5 1 C3.35 1 1.7 1 0 1 C0 0.67 0 0.34 0 0 Z " fill="#14141E" transform="translate(220,63)"/>
<path d="M0 0 C1.65 0 3.3 0 5 0 C5 0.33 5 0.66 5 1 C3.35 1 1.7 1 0 1 C0 0.67 0 0.34 0 0 Z " fill="#1D1D2A" transform="translate(225,62)"/>
<path d="M0 0 C4 1 4 1 4 1 Z " fill="#152A2A" transform="translate(268,332)"/>
<path d="M0 0 C4 1 4 1 4 1 Z " fill="#2A2A3F" transform="translate(217,332)"/>
<path d="M0 0 C4 1 4 1 4 1 Z " fill="#192626" transform="translate(213,331)"/>
<path d="M0 0 C4 1 4 1 4 1 Z " fill="#151515" transform="translate(208,330)"/>
<path d="M0 0 C4 1 4 1 4 1 Z " fill="#151515" transform="translate(283,328)"/>
<path d="M0 0 C4 1 4 1 4 1 Z " fill="#202020" transform="translate(195,326)"/>
<path d="M0 0 C4 1 4 1 4 1 Z " fill="#002020" transform="translate(294,324)"/>
<path d="M0 0 C0.66 0.33 1.32 0.66 2 1 C1.01 1 0.02 1 -1 1 C-0.67 0.67 -0.34 0.34 0 0 Z " fill="#3F3F3F" transform="translate(314,314)"/>
<path d="M0 0 C0.66 0.33 1.32 0.66 2 1 C1.01 1 0.02 1 -1 1 C-0.67 0.67 -0.34 0.34 0 0 Z " fill="#000C0C" transform="translate(335,298)"/>
<path d="M0 0 C0.99 0.33 1.98 0.66 3 1 C2.01 1 1.02 1 0 1 C0 0.67 0 0.34 0 0 Z " fill="#0C0C0C" transform="translate(151,298)"/>
<path d="M0 0 C0.99 0.33 1.98 0.66 3 1 C2.01 1 1.02 1 0 1 C0 0.67 0 0.34 0 0 Z " fill="#101010" transform="translate(216,218)"/>
<path d="M0 0 C0 3 0 3 0 3 Z " fill="#00003F" transform="translate(265,205)"/>
<path d="M0 0 C0.99 0.33 1.98 0.66 3 1 C2.01 1 1.02 1 0 1 C0 0.67 0 0.34 0 0 Z " fill="#353535" transform="translate(213,187)"/>
<path d="M0 0 C0.99 0.33 1.98 0.66 3 1 C2.01 1 1.02 1 0 1 C0 0.67 0 0.34 0 0 Z " fill="#000000" transform="translate(218,173)"/>
<path d="M0 0 C1 4 1 4 1 4 Z " fill="#352A2A" transform="translate(109,170)"/>
<path d="M0 0 C0.66 0.33 1.32 0.66 2 1 C1.01 1 0.02 1 -1 1 C-0.67 0.67 -0.34 0.34 0 0 Z " fill="#151515" transform="translate(159,90)"/>
<path d="M0 0 C4 1 4 1 4 1 Z " fill="#15152A" transform="translate(213,64)"/>
<path d="M0 0 C3 1 3 1 3 1 Z " fill="#2D3E4F" transform="translate(272,331)"/>
<path d="M0 0 C3 1 3 1 3 1 Z " fill="#1C1C1C" transform="translate(277,330)"/>
<path d="M0 0 C3 1 3 1 3 1 Z " fill="#00002A" transform="translate(289,326)"/>
<path d="M0 0 C3 1 3 1 3 1 Z " fill="#000000" transform="translate(299,322)"/>
<path d="M0 0 C3 1 3 1 3 1 Z " fill="#000000" transform="translate(186,322)"/>
<path d="M0 0 C3 1 3 1 3 1 Z " fill="#000000" transform="translate(303,320)"/>
<path d="M0 0 C3 1 3 1 3 1 Z " fill="#151515" transform="translate(182,320)"/>
<path d="M0 0 C0.33 0.66 0.66 1.32 1 2 C0.34 1.67 -0.32 1.34 -1 1 C-0.67 0.67 -0.34 0.34 0 0 Z " fill="#555555" transform="translate(333,300)"/>
<path d="M0 0 C0.66 0.66 1.32 1.32 2 2 C1.34 2 0.68 2 0 2 C0 1.34 0 0.68 0 0 Z " fill="#005555" transform="translate(154,300)"/>
<path d="M0 0 C0.66 0.66 1.32 1.32 2 2 C1.34 2 0.68 2 0 2 C0 1.34 0 0.68 0 0 Z " fill="#0E0E0E" transform="translate(140,286)"/>
<path d="M0 0 C0.66 0.66 1.32 1.32 2 2 C1.34 2 0.68 2 0 2 C0 1.34 0 0.68 0 0 Z " fill="#2A2A2A" transform="translate(138,284)"/>
<path d="M0 0 C3 1 3 1 3 1 Z " fill="#000055" transform="translate(183,258)"/>
<path d="M0 0 C0.66 0 1.32 0 2 0 C1.67 0.66 1.34 1.32 1 2 C0.67 1.34 0.34 0.68 0 0 Z " fill="#0E0E0E" transform="translate(235,235)"/>
<path d="M0 0 C0.99 0.495 0.99 0.495 2 1 C1.01 1.495 1.01 1.495 0 2 C0 1.34 0 0.68 0 0 Z " fill="#1C2D2D" transform="translate(245,229)"/>
<path d="" fill="#1C3838" transform="translate(0,0)"/>
<path d="M0 0 C0.66 0 1.32 0 2 0 C1.67 0.66 1.34 1.32 1 2 C0.67 1.34 0.34 0.68 0 0 Z " fill="#262626" transform="translate(214,216)"/>
<path d="M0 0 C3 1 3 1 3 1 Z " fill="#77778C" transform="translate(210,214)"/>
<path d="M0 0 C0.99 0.495 0.99 0.495 2 1 C1.01 1.495 1.01 1.495 0 2 C0 1.34 0 0.68 0 0 Z " fill="#2A2A40" transform="translate(262,208)"/>
<path d="M0 0 C3 1 3 1 3 1 Z " fill="#557171" transform="translate(235,206)"/>
<path d="M0 0 C0.33 0.66 0.66 1.32 1 2 C0.34 1.67 -0.32 1.34 -1 1 C-0.67 0.67 -0.34 0.34 0 0 Z " fill="#151540" transform="translate(252,189)"/>
<path d="M0 0 C0.33 0.66 0.66 1.32 1 2 C0.34 1.67 -0.32 1.34 -1 1 C-0.67 0.67 -0.34 0.34 0 0 Z " fill="#666666" transform="translate(269,170)"/>
<path d="M0 0 C0.33 0.66 0.66 1.32 1 2 C0.34 1.67 -0.32 1.34 -1 1 C-0.67 0.67 -0.34 0.34 0 0 Z " fill="#111182" transform="translate(271,168)"/>
<path d="" fill="#374C4C" transform="translate(0,0)"/>
<path d="" fill="#1C3838" transform="translate(0,0)"/>
<path d="M0 0 C0.99 0.495 0.99 0.495 2 1 C1.01 1.495 1.01 1.495 0 2 C0 1.34 0 0.68 0 0 Z " fill="#000015" transform="translate(266,152)"/>
<path d="M0 0 C0.33 0.66 0.66 1.32 1 2 C0.34 1.67 -0.32 1.34 -1 1 C-0.67 0.67 -0.34 0.34 0 0 Z " fill="#116666" transform="translate(290,147)"/>
<path d="M0 0 C0.33 0.66 0.66 1.32 1 2 C0.34 1.67 -0.32 1.34 -1 1 C-0.67 0.67 -0.34 0.34 0 0 Z " fill="#11113B" transform="translate(292,145)"/>
<path d="M0 0 C0.99 0.495 0.99 0.495 2 1 C1.01 1.495 1.01 1.495 0 2 C0 1.34 0 0.68 0 0 Z " fill="#313131" transform="translate(317,140)"/>
<path d="M0 0 C0.33 0.66 0.66 1.32 1 2 C0.34 1.67 -0.32 1.34 -1 1 C-0.67 0.67 -0.34 0.34 0 0 Z " fill="#232323" transform="translate(308,127)"/>
<path d="M0 0 C0.33 0.66 0.66 1.32 1 2 C0.34 1.67 -0.32 1.34 -1 1 C-0.67 0.67 -0.34 0.34 0 0 Z " fill="#232323" transform="translate(310,125)"/>
<path d="M0 0 C0.33 0.66 0.66 1.32 1 2 C0.34 1.67 -0.32 1.34 -1 1 C-0.67 0.67 -0.34 0.34 0 0 Z " fill="#0E0E23" transform="translate(312,123)"/>
<path d="M0 0 C3 1 3 1 3 1 Z " fill="#000000" transform="translate(254,111)"/>
<path d="M0 0 C3 1 3 1 3 1 Z " fill="#000000" transform="translate(231,111)"/>
<path d="M0 0 C3 1 3 1 3 1 Z " fill="#001515" transform="translate(234,110)"/>
<path d="M0 0 C0.33 0.66 0.66 1.32 1 2 C0.34 1.67 -0.32 1.34 -1 1 C-0.67 0.67 -0.34 0.34 0 0 Z " fill="#0E0E0E" transform="translate(329,104)"/>
<path d="M0 0 C0.33 0.66 0.66 1.32 1 2 C0.34 1.67 -0.32 1.34 -1 1 C-0.67 0.67 -0.34 0.34 0 0 Z " fill="#0E0E0E" transform="translate(331,102)"/>
<path d="M0 0 C0.33 0.66 0.66 1.32 1 2 C0.34 1.67 -0.32 1.34 -1 1 C-0.67 0.67 -0.34 0.34 0 0 Z " fill="#111111" transform="translate(333,100)"/>
<path d="M0 0 C0.66 0.66 1.32 1.32 2 2 C1.34 2 0.68 2 0 2 C0 1.34 0 0.68 0 0 Z " fill="#1C1C1C" transform="translate(329,91)"/>
<path d="M0 0 C3 1 3 1 3 1 Z " fill="#2A2A2A" transform="translate(296,72)"/>
<path d="M0 0 C3 1 3 1 3 1 Z " fill="#002A2A" transform="translate(189,72)"/>
<path d="M0 0 C3 1 3 1 3 1 Z " fill="#002A2A" transform="translate(291,70)"/>
<path d="M0 0 C3 1 3 1 3 1 Z " fill="#2A2A2A" transform="translate(194,70)"/>
<path d="M0 0 C3 1 3 1 3 1 Z " fill="#2A4747" transform="translate(286,68)"/>
<path d="M0 0 C3 1 3 1 3 1 Z " fill="#474747" transform="translate(280,66)"/>
<path d="M0 0 C3 1 3 1 3 1 Z " fill="#1C1C1C" transform="translate(205,66)"/>
<path d="M0 0 C3 1 3 1 3 1 Z " fill="#223333" transform="translate(210,65)"/>
<path d="M0 0 C2 1 2 1 2 1 Z " fill="#193333" transform="translate(280,329)"/>
<path d="M0 0 C2 1 2 1 2 1 Z " fill="#393939" transform="translate(206,329)"/>
<path d="M0 0 C2 1 2 1 2 1 Z " fill="#191933" transform="translate(287,327)"/>
<path d="M0 0 C2 1 2 1 2 1 Z " fill="#191933" transform="translate(199,327)"/>
<path d="M0 0 C2 1 2 1 2 1 Z " fill="#404040" transform="translate(292,325)"/>
<path d="M0 0 C2 1 2 1 2 1 Z " fill="#000020" transform="translate(307,318)"/>
<path d="M0 0 C2 1 2 1 2 1 Z " fill="#202020" transform="translate(179,318)"/>
<path d="M0 0 C2 1 2 1 2 1 Z " fill="#404060" transform="translate(309,317)"/>
<path d="M0 0 C2 1 2 1 2 1 Z " fill="#999999" transform="translate(177,317)"/>
<path d="M0 0 C2 1 2 1 2 1 Z " fill="#2A2A2A" transform="translate(311,316)"/>
<path d="M0 0 C2 1 2 1 2 1 Z " fill="#000040" transform="translate(175,316)"/>
<path d="M0 0 C2 1 2 1 2 1 Z " fill="#004040" transform="translate(172,314)"/>
<path d="M0 0 C2 1 2 1 2 1 Z " fill="#2A2A2A" transform="translate(316,313)"/>
<path d="M0 0 C2 1 2 1 2 1 Z " fill="#404040" transform="translate(169,312)"/>
<path d="M0 0 C2 1 2 1 2 1 Z " fill="#BFBFBF" transform="translate(167,311)"/>
<path d="M0 0 C2 1 2 1 2 1 Z " fill="#000000" transform="translate(322,309)"/>
<path d="M0 0 C2 1 2 1 2 1 Z " fill="#000000" transform="translate(163,308)"/>
<path d="M0 0 C2 1 2 1 2 1 Z " fill="#004040" transform="translate(159,305)"/>
<path d="" fill="#000000" transform="translate(0,0)"/>
<path d="M0 0 C2 1 2 1 2 1 Z " fill="#393939" transform="translate(181,259)"/>
<path d="M0 0 C2 1 2 1 2 1 Z " fill="#000000" transform="translate(299,256)"/>
<path d="M0 0 C2 1 2 1 2 1 Z " fill="#000000" transform="translate(187,256)"/>
<path d="" fill="#2A2A2A" transform="translate(0,0)"/>
<path d="" fill="#2A2A2A" transform="translate(0,0)"/>
<path d="" fill="#191919" transform="translate(0,0)"/>
<path d="M0 0 C2 1 2 1 2 1 Z " fill="#202020" transform="translate(225,226)"/>
<path d="" fill="#152A2A" transform="translate(0,0)"/>
<path d="M0 0 C2 1 2 1 2 1 Z " fill="#404060" transform="translate(269,201)"/>
<path d="M0 0 C2 1 2 1 2 1 Z " fill="#152A2A" transform="translate(228,200)"/>
<path d="M0 0 C2 1 2 1 2 1 Z " fill="#002020" transform="translate(223,196)"/>
<path d="M0 0 C2 1 2 1 2 1 Z " fill="#404040" transform="translate(206,181)"/>
<path d="M0 0 C2 1 2 1 2 1 Z " fill="#000000" transform="translate(206,163)"/>
<path d="" fill="#333333" transform="translate(0,0)"/>
<path d="M0 0 C2 1 2 1 2 1 Z " fill="#000000" transform="translate(243,147)"/>
<path d="" fill="#000000" transform="translate(0,0)"/>
<path d="M0 0 C2 1 2 1 2 1 Z " fill="#000000" transform="translate(252,110)"/>
<path d="M0 0 C2 1 2 1 2 1 Z " fill="#7F7F7F" transform="translate(323,87)"/>
<path d="M0 0 C2 1 2 1 2 1 Z " fill="#AAAAAA" transform="translate(163,87)"/>
<path d="M0 0 C2 1 2 1 2 1 Z " fill="#2A2A2A" transform="translate(321,86)"/>
<path d="M0 0 C2 1 2 1 2 1 Z " fill="#404040" transform="translate(166,85)"/>
<path d="M0 0 C2 1 2 1 2 1 Z " fill="#404040" transform="translate(317,83)"/>
<path d="M0 0 C2 1 2 1 2 1 Z " fill="#2A2A2A" transform="translate(315,82)"/>
<path d="M0 0 C2 1 2 1 2 1 Z " fill="#000000" transform="translate(172,81)"/>
<path d="M0 0 C2 1 2 1 2 1 Z " fill="#007F7F" transform="translate(312,80)"/>
<path d="M0 0 C2 1 2 1 2 1 Z " fill="#00007F" transform="translate(174,80)"/>
<path d="M0 0 C2 1 2 1 2 1 Z " fill="#000000" transform="translate(309,78)"/>
<path d="M0 0 C2 1 2 1 2 1 Z " fill="#000000" transform="translate(177,78)"/>
<path d="M0 0 C2 1 2 1 2 1 Z " fill="#595959" transform="translate(307,77)"/>
<path d="M0 0 C2 1 2 1 2 1 Z " fill="#40BFBF" transform="translate(179,77)"/>
<path d="M0 0 C2 1 2 1 2 1 Z " fill="#000000" transform="translate(305,76)"/>
<path d="M0 0 C2 1 2 1 2 1 Z " fill="#000000" transform="translate(181,76)"/>
<path d="M0 0 C2 1 2 1 2 1 Z " fill="#595959" transform="translate(303,75)"/>
<path d="M0 0 C2 1 2 1 2 1 Z " fill="#194444" transform="translate(183,75)"/>
<path d="M0 0 C2 1 2 1 2 1 Z " fill="#004040" transform="translate(301,74)"/>
<path d="M0 0 C2 1 2 1 2 1 Z " fill="#000040" transform="translate(185,74)"/>
<path d="M0 0 C2 1 2 1 2 1 Z " fill="#1999B2" transform="translate(299,73)"/>
<path d="M0 0 C2 1 2 1 2 1 Z " fill="#191933" transform="translate(187,73)"/>
<path d="M0 0 C2 1 2 1 2 1 Z " fill="#444444" transform="translate(294,71)"/>
<path d="M0 0 C2 1 2 1 2 1 Z " fill="#406060" transform="translate(192,71)"/>
<path d="M0 0 C2 1 2 1 2 1 Z " fill="#393939" transform="translate(289,69)"/>
<path d="M0 0 C2 1 2 1 2 1 Z " fill="#595959" transform="translate(197,69)"/>
<path d="M0 0 C2 1 2 1 2 1 Z " fill="#40406A" transform="translate(199,68)"/>
<path d="M0 0 C2 1 2 1 2 1 Z " fill="#44445D" transform="translate(283,67)"/>
<path d="M0 0 C2 1 2 1 2 1 Z " fill="#445D5D" transform="translate(203,67)"/>
<path d="" fill="#333366" transform="translate(0,0)"/>
<path d="" fill="#404080" transform="translate(0,0)"/>
<path d="" fill="#333366" transform="translate(0,0)"/>
<path d="" fill="#336666" transform="translate(0,0)"/>
<path d="" fill="#404040" transform="translate(0,0)"/>
<path d="" fill="#404040" transform="translate(0,0)"/>
<path d="" fill="#004040" transform="translate(0,0)"/>
<path d="" fill="#004040" transform="translate(0,0)"/>
<path d="" fill="#555555" transform="translate(0,0)"/>
<path d="" fill="#008080" transform="translate(0,0)"/>
<path d="" fill="#404040" transform="translate(0,0)"/>
<path d="" fill="#000000" transform="translate(0,0)"/>
<path d="" fill="#000000" transform="translate(0,0)"/>
<path d="" fill="#555555" transform="translate(0,0)"/>
<path d="" fill="#000000" transform="translate(0,0)"/>
<path d="" fill="#000055" transform="translate(0,0)"/>
<path d="" fill="#2B2B2B" transform="translate(0,0)"/>
<path d="" fill="#000033" transform="translate(0,0)"/>
<path d="" fill="#000000" transform="translate(0,0)"/>
<path d="" fill="#000000" transform="translate(0,0)"/>
<path d="" fill="#404040" transform="translate(0,0)"/>
<path d="" fill="#404040" transform="translate(0,0)"/>
<path d="" fill="#004040" transform="translate(0,0)"/>
<path d="" fill="#000000" transform="translate(0,0)"/>
<path d="" fill="#000000" transform="translate(0,0)"/>
<path d="" fill="#000000" transform="translate(0,0)"/>
<path d="" fill="#000040" transform="translate(0,0)"/>
<path d="" fill="#000000" transform="translate(0,0)"/>
<path d="" fill="#000000" transform="translate(0,0)"/>
<path d="" fill="#000000" transform="translate(0,0)"/>
<path d="" fill="#404040" transform="translate(0,0)"/>
<path d="" fill="#404040" transform="translate(0,0)"/>
<path d="" fill="#555555" transform="translate(0,0)"/>
<path d="" fill="#000000" transform="translate(0,0)"/>
<path d="" fill="#404040" transform="translate(0,0)"/>
<path d="" fill="#404040" transform="translate(0,0)"/>
<path d="" fill="#000000" transform="translate(0,0)"/>
<path d="" fill="#555555" transform="translate(0,0)"/>
<path d="" fill="#000000" transform="translate(0,0)"/>
<path d="" fill="#242424" transform="translate(0,0)"/>
<path d="" fill="#005555" transform="translate(0,0)"/>
<path d="" fill="#555555" transform="translate(0,0)"/>
<path d="" fill="#555555" transform="translate(0,0)"/>
<path d="" fill="#555555" transform="translate(0,0)"/>
<path d="" fill="#000000" transform="translate(0,0)"/>
<path d="" fill="#404040" transform="translate(0,0)"/>
<path d="" fill="#003333" transform="translate(0,0)"/>
<path d="" fill="#404040" transform="translate(0,0)"/>
<path d="" fill="#000000" transform="translate(0,0)"/>
<path d="" fill="#555555" transform="translate(0,0)"/>
<path d="" fill="#808080" transform="translate(0,0)"/>
<path d="" fill="#808080" transform="translate(0,0)"/>
<path d="" fill="#000080" transform="translate(0,0)"/>
<path d="" fill="#004040" transform="translate(0,0)"/>
<path d="" fill="#2B5555" transform="translate(0,0)"/>
<path d="" fill="#404040" transform="translate(0,0)"/>
<path d="" fill="#333366" transform="translate(0,0)"/>
<path d="" fill="#555555" transform="translate(0,0)"/>
<path d="" fill="#000000" transform="translate(0,0)"/>
<path d="" fill="#005555" transform="translate(0,0)"/>
<path d="" fill="#808080" transform="translate(0,0)"/>
<path d="" fill="#666666" transform="translate(0,0)"/>
<path d="" fill="#000000" transform="translate(0,0)"/>
<path d="" fill="#333366" transform="translate(0,0)"/>
<path d="" fill="#000000" transform="translate(0,0)"/>
<path d="" fill="#408080" transform="translate(0,0)"/>
<path d="" fill="#555555" transform="translate(0,0)"/>
<path d="" fill="#000000" transform="translate(0,0)"/>
<path d="" fill="#404040" transform="translate(0,0)"/>
<path d="" fill="#000000" transform="translate(0,0)"/>
<path d="" fill="#808080" transform="translate(0,0)"/>
<path d="" fill="#003333" transform="translate(0,0)"/>
<path d="" fill="#000000" transform="translate(0,0)"/>
<path d="" fill="#333333" transform="translate(0,0)"/>
<path d="" fill="#003333" transform="translate(0,0)"/>
<path d="" fill="#404080" transform="translate(0,0)"/>
<path d="" fill="#333333" transform="translate(0,0)"/>
<path d="" fill="#808080" transform="translate(0,0)"/>
<path d="" fill="#555555" transform="translate(0,0)"/>
<path d="" fill="#555555" transform="translate(0,0)"/>
<path d="" fill="#555555" transform="translate(0,0)"/>
<path d="" fill="#555555" transform="translate(0,0)"/>
<path d="" fill="#555555" transform="translate(0,0)"/>
<path d="" fill="#000000" transform="translate(0,0)"/>
<path d="" fill="#000000" transform="translate(0,0)"/>
<path d="" fill="#004040" transform="translate(0,0)"/>
<path d="" fill="#000000" transform="translate(0,0)"/>
<path d="" fill="#008080" transform="translate(0,0)"/>
<path d="" fill="#404040" transform="translate(0,0)"/>
<path d="" fill="#333333" transform="translate(0,0)"/>
<path d="" fill="#005555" transform="translate(0,0)"/>
<path d="" fill="#404040" transform="translate(0,0)"/>
<path d="" fill="#555555" transform="translate(0,0)"/>
<path d="" fill="#404040" transform="translate(0,0)"/>
<path d="" fill="#000000" transform="translate(0,0)"/>
<path d="" fill="#2B2B55" transform="translate(0,0)"/>
<path d="" fill="#555555" transform="translate(0,0)"/>
<path d="" fill="#004040" transform="translate(0,0)"/>
<path d="" fill="#000000" transform="translate(0,0)"/>
<path d="" fill="#000000" transform="translate(0,0)"/>
<path d="" fill="#333333" transform="translate(0,0)"/>
<path d="" fill="#000000" transform="translate(0,0)"/>
<path d="" fill="#404040" transform="translate(0,0)"/>
<path d="" fill="#000000" transform="translate(0,0)"/>
<path d="" fill="#333333" transform="translate(0,0)"/>
<path d="" fill="#808080" transform="translate(0,0)"/>
<path d="" fill="#000000" transform="translate(0,0)"/>
<path d="" fill="#000000" transform="translate(0,0)"/>
<path d="" fill="#000000" transform="translate(0,0)"/>
<path d="" fill="#000000" transform="translate(0,0)"/>
<path d="" fill="#404040" transform="translate(0,0)"/>
<path d="" fill="#000055" transform="translate(0,0)"/>
<path d="" fill="#404080" transform="translate(0,0)"/>
<path d="" fill="#555555" transform="translate(0,0)"/>
<path d="" fill="#000000" transform="translate(0,0)"/>
<path d="" fill="#008080" transform="translate(0,0)"/>
<path d="" fill="#000000" transform="translate(0,0)"/>
<path d="" fill="#404040" transform="translate(0,0)"/>
<path d="" fill="#000000" transform="translate(0,0)"/>
<path d="" fill="#333366" transform="translate(0,0)"/>
<path d="" fill="#555555" transform="translate(0,0)"/>
<path d="" fill="#555555" transform="translate(0,0)"/>
<path d="" fill="#5555AA" transform="translate(0,0)"/>
<path d="" fill="#404040" transform="translate(0,0)"/>
<path d="" fill="#000000" transform="translate(0,0)"/>
<path d="" fill="#000000" transform="translate(0,0)"/>
<path d="" fill="#333333" transform="translate(0,0)"/>
<path d="" fill="#000000" transform="translate(0,0)"/>
<path d="" fill="#333333" transform="translate(0,0)"/>
<path d="" fill="#000055" transform="translate(0,0)"/>
<path d="" fill="#000000" transform="translate(0,0)"/>
<path d="" fill="#004040" transform="translate(0,0)"/>
<path d="" fill="#000000" transform="translate(0,0)"/>
<path d="" fill="#000040" transform="translate(0,0)"/>
<path d="" fill="#000000" transform="translate(0,0)"/>
<path d="" fill="#000000" transform="translate(0,0)"/>
<path d="" fill="#000000" transform="translate(0,0)"/>
<path d="" fill="#555555" transform="translate(0,0)"/>
<path d="" fill="#008080" transform="translate(0,0)"/>
<path d="" fill="#000000" transform="translate(0,0)"/>
<path d="" fill="#008080" transform="translate(0,0)"/>
<path d="" fill="#555555" transform="translate(0,0)"/>
<path d="" fill="#000080" transform="translate(0,0)"/>
<path d="" fill="#808080" transform="translate(0,0)"/>
<path d="" fill="#808080" transform="translate(0,0)"/>
<path d="" fill="#333366" transform="translate(0,0)"/>
<path d="" fill="#2B2B2B" transform="translate(0,0)"/>
<path d="" fill="#404040" transform="translate(0,0)"/>
<path d="" fill="#333366" transform="translate(0,0)"/>
<path d="" fill="#555555" transform="translate(0,0)"/>
<path d="" fill="#005555" transform="translate(0,0)"/>
<path d="" fill="#000000" transform="translate(0,0)"/>
<path d="" fill="#333333" transform="translate(0,0)"/>
<path d="" fill="#5555AA" transform="translate(0,0)"/>
<path d="" fill="#808080" transform="translate(0,0)"/>
<path d="" fill="#333366" transform="translate(0,0)"/>
<path d="" fill="#555555" transform="translate(0,0)"/>
<path d="" fill="#333333" transform="translate(0,0)"/>
<path d="" fill="#2B2B55" transform="translate(0,0)"/>
<path d="" fill="#004040" transform="translate(0,0)"/>
<path d="" fill="#555555" transform="translate(0,0)"/>
<path d="" fill="#000000" transform="translate(0,0)"/>
<path d="" fill="#000000" transform="translate(0,0)"/>
<path d="" fill="#333366" transform="translate(0,0)"/>
<path d="" fill="#000000" transform="translate(0,0)"/>
<path d="" fill="#404040" transform="translate(0,0)"/>
<path d="" fill="#000040" transform="translate(0,0)"/>
<path d="" fill="#003333" transform="translate(0,0)"/>
<path d="" fill="#404040" transform="translate(0,0)"/>
<path d="" fill="#336666" transform="translate(0,0)"/>
<path d="" fill="#000000" transform="translate(0,0)"/>
<path d="" fill="#808080" transform="translate(0,0)"/>
<path d="" fill="#808080" transform="translate(0,0)"/>
<path d="" fill="#000000" transform="translate(0,0)"/>
<path d="" fill="#000000" transform="translate(0,0)"/>
<path d="" fill="#0000FF" transform="translate(0,0)"/>
<path d="" fill="#808080" transform="translate(0,0)"/>
<path d="" fill="#808080" transform="translate(0,0)"/>
<path d="" fill="#555555" transform="translate(0,0)"/>
<path d="" fill="#555555" transform="translate(0,0)"/>
<path d="" fill="#555555" transform="translate(0,0)"/>
<path d="" fill="#555555" transform="translate(0,0)"/>
<path d="" fill="#555555" transform="translate(0,0)"/>
<path d="" fill="#000000" transform="translate(0,0)"/>
<path d="" fill="#555555" transform="translate(0,0)"/>
<path d="" fill="#808080" transform="translate(0,0)"/>
<path d="" fill="#555555" transform="translate(0,0)"/>
<path d="" fill="#808080" transform="translate(0,0)"/>
<path d="" fill="#2B2B2B" transform="translate(0,0)"/>
<path d="" fill="#555555" transform="translate(0,0)"/>
<path d="" fill="#000000" transform="translate(0,0)"/>
<path d="" fill="#004040" transform="translate(0,0)"/>
<path d="" fill="#555555" transform="translate(0,0)"/>
<path d="" fill="#404040" transform="translate(0,0)"/>
<path d="" fill="#333333" transform="translate(0,0)"/>
<path d="" fill="#408080" transform="translate(0,0)"/>
<path d="" fill="#0000FF" transform="translate(0,0)"/>
<path d="" fill="#000000" transform="translate(0,0)"/>
<path d="" fill="#555555" transform="translate(0,0)"/>
<path d="" fill="#000000" transform="translate(0,0)"/>
<path d="" fill="#005555" transform="translate(0,0)"/>
<path d="" fill="#404040" transform="translate(0,0)"/>
<path d="" fill="#00FFFF" transform="translate(0,0)"/>
<path d="" fill="#555555" transform="translate(0,0)"/>
<path d="" fill="#333333" transform="translate(0,0)"/>
<path d="" fill="#000040" transform="translate(0,0)"/>
<path d="" fill="#004040" transform="translate(0,0)"/>
<path d="" fill="#80FF80" transform="translate(0,0)"/>
<path d="" fill="#FFFFFF" transform="translate(0,0)"/>
<path d="" fill="#AAAAAA" transform="translate(0,0)"/>
<path d="" fill="#FFFFFF" transform="translate(0,0)"/>
<path d="" fill="#FFFFFF" transform="translate(0,0)"/>
</svg>
